<svg width="1920" height="276" viewBox="0 0 1920 276" fill="none" xmlns="http://www.w3.org/2000/svg">
<g clip-path="url(#clip0_118_1162)">
<circle opacity="0.3" cx="422" cy="47" r="19" fill="#FFDB94"/>
<ellipse cx="422.128" cy="47.1282" rx="12.0909" ry="12.0909" fill="#FFDB94"/>
<path opacity="0.2" d="M17.9943 53.3441C19.0988 53.3441 19.9943 52.4487 19.9943 51.3441V40.8418C19.9943 39.7372 20.8897 38.8418 21.9943 38.8418H24.5441C25.6486 38.8418 26.5441 37.9464 26.5441 36.8418V15.8471C26.5441 14.7425 27.4395 13.8471 28.5441 13.8471H59.6865C60.7911 13.8471 61.6865 14.7425 61.6865 15.8471V36.82C61.6865 37.9246 62.5819 38.82 63.6865 38.82H92.5316C93.6362 38.82 94.5316 37.9246 94.5316 36.82V0.119315C94.5316 -0.985254 95.4271 -1.88069 96.5316 -1.88069H128.785C129.89 -1.88069 130.785 -0.985256 130.785 0.119313V22.5425C130.785 23.6471 131.681 24.5425 132.785 24.5425H137.055C138.16 24.5425 139.055 23.6471 139.055 22.5425V-5C139.055 -6.10457 139.951 -7 141.055 -7H173.309C174.413 -7 175.309 -6.10457 175.309 -5V50.1404C175.309 51.245 176.204 52.1404 177.309 52.1404H219.158C220.262 52.1404 221.158 53.0358 221.158 54.1404V84.6269C221.158 85.7315 222.053 86.6269 223.158 86.6269H236.253C237.358 86.6269 238.253 87.5223 238.253 88.6269V93.3283C238.253 94.4329 239.149 95.3283 240.253 95.3283H275.595C276.699 95.3283 277.595 94.4329 277.595 93.3283V82.3546C277.595 81.2501 278.49 80.3546 279.595 80.3546H298.193C299.298 80.3546 300.193 79.4592 300.193 78.3546V41.6902C300.193 40.5856 301.089 39.6902 302.193 39.6902H326.091C327.196 39.6902 328.091 40.5856 328.091 41.6902V112.74C328.091 113.844 328.987 114.74 330.091 114.74H354C355.105 114.74 356 115.635 356 116.74V178C356 179.105 355.105 180 354 180H-6.00001C-7.10458 180 -8 179.105 -8 178V55.3441C-8 54.2395 -7.10457 53.3441 -6 53.3441H17.9943Z" fill="#FFD883"/>
<path opacity="0.2" d="M1894.01 53.3441C1892.9 53.3441 1892.01 52.4487 1892.01 51.3441V40.8418C1892.01 39.7372 1891.11 38.8418 1890.01 38.8418H1887.46C1886.35 38.8418 1885.46 37.9464 1885.46 36.8418V15.8471C1885.46 14.7425 1884.56 13.8471 1883.46 13.8471H1852.31C1851.21 13.8471 1850.31 14.7425 1850.31 15.8471V36.82C1850.31 37.9246 1849.42 38.82 1848.31 38.82H1819.47C1818.36 38.82 1817.47 37.9246 1817.47 36.82V0.119315C1817.47 -0.985254 1816.57 -1.88069 1815.47 -1.88069H1783.21C1782.11 -1.88069 1781.21 -0.985256 1781.21 0.119313V22.5425C1781.21 23.6471 1780.32 24.5425 1779.21 24.5425H1774.94C1773.84 24.5425 1772.94 23.6471 1772.94 22.5425V-5C1772.94 -6.10457 1772.05 -7 1770.94 -7H1738.69C1737.59 -7 1736.69 -6.10457 1736.69 -5V50.1404C1736.69 51.245 1735.8 52.1404 1734.69 52.1404H1692.84C1691.74 52.1404 1690.84 53.0358 1690.84 54.1404V84.6269C1690.84 85.7315 1689.95 86.6269 1688.84 86.6269H1675.75C1674.64 86.6269 1673.75 87.5223 1673.75 88.6269V93.3283C1673.75 94.4329 1672.85 95.3283 1671.75 95.3283H1636.41C1635.3 95.3283 1634.41 94.4329 1634.41 93.3283V82.3546C1634.41 81.2501 1633.51 80.3546 1632.41 80.3546H1613.81C1612.7 80.3546 1611.81 79.4592 1611.81 78.3546V41.6902C1611.81 40.5856 1610.91 39.6902 1609.81 39.6902H1585.91C1584.8 39.6902 1583.91 40.5856 1583.91 41.6902V112.74C1583.91 113.844 1583.01 114.74 1581.91 114.74H1558C1556.9 114.74 1556 115.635 1556 116.74V178C1556 179.105 1556.9 180 1558 180H1918C1919.1 180 1920 179.105 1920 178V55.3441C1920 54.2395 1919.1 53.3441 1918 53.3441H1894.01Z" fill="#FFD883"/>
<path d="M201.288 100.9C201.288 110.785 194.426 118.799 187.644 118.799C180.862 118.799 174 110.785 174 100.9C174 91.0139 183.039 83 187.644 83C192.249 83 201.288 91.0139 201.288 100.9Z" fill="#FFDB94"/>
<path fill-rule="evenodd" clip-rule="evenodd" d="M187.808 94.7877C188.561 94.7877 189.172 95.4042 189.172 96.1646V101.807L191.808 99.1653C192.343 98.6295 193.207 98.6325 193.738 99.1721C194.269 99.7117 194.266 100.583 193.731 101.119L189.172 105.688V134.718C189.172 135.478 188.561 136.095 187.808 136.095C187.054 136.095 186.444 135.478 186.444 134.718V114.637L180.893 109.075C180.358 108.539 180.355 107.667 180.886 107.127C181.417 106.588 182.281 106.585 182.816 107.121L186.444 110.756V96.1646C186.444 95.4042 187.054 94.7877 187.808 94.7877Z" fill="#8D6808"/>
<rect opacity="0.3" x="180" y="135" width="17.447" height="1.60142" rx="0.80071" fill="#848484"/>
<rect opacity="0.3" x="111.173" y="134.028" width="30.1358" height="3.20284" rx="1.60142" fill="#848484"/>
<path d="M146.066 86.9695C146.066 100.76 136.494 111.939 127.033 111.939C117.573 111.939 108 100.76 108 86.9695C108 73.1792 120.609 62 127.033 62C133.457 62 146.066 73.1792 146.066 86.9695Z" fill="#B9BB26"/>
<path fill-rule="evenodd" clip-rule="evenodd" d="M127.261 78.4436C128.312 78.4436 129.164 79.3035 129.164 80.3643V88.2348L132.841 84.5502C133.587 83.8028 134.792 83.807 135.533 84.5597C136.273 85.3124 136.269 86.5285 135.523 87.276L129.164 93.6486V134.145C129.164 135.206 128.312 136.066 127.261 136.066C126.21 136.066 125.358 135.206 125.358 134.145V106.133L117.614 98.3735C116.869 97.6261 116.864 96.4099 117.605 95.6572C118.346 94.9045 119.551 94.9003 120.297 95.6478L125.358 100.72V80.3643C125.358 79.3035 126.21 78.4436 127.261 78.4436Z" fill="#8D6808"/>
<path d="M1724 98.8996C1724 108.785 1730.86 116.799 1737.64 116.799C1744.43 116.799 1751.29 108.785 1751.29 98.8996C1751.29 89.0139 1742.25 81 1737.64 81C1733.04 81 1724 89.0139 1724 98.8996Z" fill="#FFDB94"/>
<path fill-rule="evenodd" clip-rule="evenodd" d="M1737.48 92.7877C1736.73 92.7877 1736.12 93.4042 1736.12 94.1646V99.8066L1733.48 97.1653C1732.95 96.6295 1732.08 96.6325 1731.55 97.1721C1731.02 97.7117 1731.02 98.5835 1731.56 99.1193L1736.12 103.688V132.718C1736.12 133.478 1736.73 134.095 1737.48 134.095C1738.23 134.095 1738.84 133.478 1738.84 132.718V112.637L1744.4 107.075C1744.93 106.539 1744.93 105.667 1744.4 105.127C1743.87 104.588 1743.01 104.585 1742.47 105.121L1738.84 108.756V94.1646C1738.84 93.4042 1738.23 92.7877 1737.48 92.7877Z" fill="#8D6808"/>
<rect opacity="0.3" width="17.447" height="1.60142" rx="0.80071" transform="matrix(-1 0 0 1 1721.29 135)" fill="#E8C683"/>
<rect opacity="0.3" width="30.1358" height="3.20284" rx="1.60142" transform="matrix(-1 0 0 1 1790.12 134.028)" fill="#E8C683"/>
<path d="M1755.22 86.9695C1755.22 100.76 1764.79 111.939 1774.25 111.939C1783.72 111.939 1793.29 100.76 1793.29 86.9695C1793.29 73.1792 1780.68 62 1774.25 62C1767.83 62 1755.22 73.1792 1755.22 86.9695Z" fill="#FFC044"/>
<path d="M1755.22 86.9695C1755.22 100.76 1764.79 111.939 1774.25 111.939C1783.72 111.939 1793.29 100.76 1793.29 86.9695C1793.29 73.1792 1780.68 62 1774.25 62C1767.83 62 1755.22 73.1792 1755.22 86.9695Z" fill="url(#paint0_radial_118_1162)"/>
<path fill-rule="evenodd" clip-rule="evenodd" d="M1774.03 78.4436C1772.98 78.4436 1772.12 79.3035 1772.12 80.3643V88.2348L1768.45 84.5502C1767.7 83.8028 1766.5 83.807 1765.76 84.5597C1765.01 85.3124 1765.02 86.5285 1765.76 87.276L1772.12 93.6486V134.145C1772.12 135.206 1772.98 136.066 1774.03 136.066C1775.08 136.066 1775.93 135.206 1775.93 134.145V106.133L1783.67 98.3735C1784.42 97.6261 1784.42 96.4099 1783.68 95.6572C1782.94 94.9045 1781.74 94.9003 1780.99 95.6478L1775.93 100.72V80.3643C1775.93 79.3035 1775.08 78.4436 1774.03 78.4436Z" fill="#8D6808"/>
<rect y="161.038" width="1920" height="58.4231" fill="#C7C75C"/>
<rect opacity="0.6" y="161" width="1920" height="58.4231" fill="url(#paint1_linear_118_1162)"/>
<rect y="129" width="1920" height="32.9808" fill="#D2D52E"/>
<path d="M323.152 148.536C323.469 148.83 323.885 148.995 324.317 148.999C326.37 149.227 328.448 149.04 330.427 148.447C330.981 148.312 331.493 148.046 331.921 147.67C332.13 147.47 332.276 147.215 332.342 146.934C332.408 146.653 332.392 146.359 332.294 146.087C332.089 145.8 331.805 145.579 331.476 145.449C331.147 145.319 330.789 145.287 330.442 145.356C329.752 145.498 329.041 145.498 328.351 145.356C327.484 145.057 326.991 144.116 326.185 143.638C325.378 143.161 323.107 142.951 322.809 144.28C322.742 144.846 322.742 145.417 322.809 145.983C322.883 146.699 322.734 147.924 323.152 148.536Z" fill="#FF9900"/>
<path d="M305.629 135.948C305.592 136.378 305.72 136.805 305.988 137.143C307.08 138.907 308.518 140.431 310.216 141.623C310.653 141.972 311.163 142.217 311.709 142.339C311.998 142.384 312.294 142.342 312.559 142.22C312.825 142.098 313.049 141.9 313.203 141.652C313.301 141.313 313.299 140.953 313.199 140.614C313.098 140.275 312.903 139.972 312.635 139.741C312.092 139.29 311.65 138.731 311.336 138.099C311.037 137.218 311.47 136.247 311.336 135.336C311.201 134.425 309.962 132.499 308.737 133.081C308.254 133.388 307.808 133.749 307.407 134.157C306.899 134.59 305.809 135.172 305.629 135.948Z" fill="#FF9900"/>
<path d="M358.272 151C368.477 151 376.75 142.73 376.75 132.529C376.75 122.328 368.477 114.058 358.272 114.058C348.066 114.058 339.793 122.328 339.793 132.529C339.793 142.73 348.066 151 358.272 151Z" stroke="#222222" stroke-miterlimit="10"/>
<path d="M319.283 121.539C319.283 121.539 313.592 126.258 310.813 129.169C309.43 130.399 308.351 131.932 307.661 133.649C307.703 134.429 307.956 135.182 308.393 135.829C309.454 136.359 310.604 136.688 311.784 136.8C311.784 136.8 315.534 134.142 317.834 132.44C319.988 130.618 321.987 128.62 323.809 126.467L325.99 121.509L319.283 121.539Z" fill="#C78400"/>
<path d="M336.477 97.9312C336.477 97.9312 333.818 95.0195 336.477 93.2127C339.136 91.4059 341.676 91.8688 342.647 93.9294C343.618 95.9901 358.257 132.529 358.257 132.529" stroke="#FF9900" stroke-width="2" stroke-miterlimit="10"/>
<path d="M345.619 145.161L370.91 119.881" stroke="#222222" stroke-miterlimit="10"/>
<path d="M358.272 150.403V114.64" stroke="#222222" stroke-miterlimit="10"/>
<path d="M340.391 132.529H376.153" stroke="#222222" stroke-miterlimit="10"/>
<path d="M370.91 145.161L345.619 119.881" stroke="#222222" stroke-miterlimit="10"/>
<path d="M273.841 145.161L299.131 119.881" stroke="#222222" stroke-miterlimit="10"/>
<path d="M286.479 150.403V114.64" stroke="#222222" stroke-miterlimit="10"/>
<path d="M268.597 132.529H304.359" stroke="#222222" stroke-miterlimit="10"/>
<path d="M299.131 145.161L273.841 119.881" stroke="#222222" stroke-miterlimit="10"/>
<path d="M286.479 151C296.684 151 304.957 142.73 304.957 132.529C304.957 122.328 296.684 114.058 286.479 114.058C276.273 114.058 268 122.328 268 132.529C268 142.73 276.273 151 286.479 151Z" stroke="#222222" stroke-miterlimit="10"/>
<path d="M366.742 112.311C363.904 109.842 360.478 108.146 356.793 107.387C353.109 106.629 349.291 106.833 345.709 107.981C341.81 109.399 338.389 112.55 335.087 115.058C329.784 119.075 324.631 123.331 319.447 127.512L313.546 132.305C313.354 132.456 313.118 132.54 312.874 132.544H288.779C288.556 132.532 288.341 132.456 288.16 132.326C287.979 132.195 287.839 132.015 287.757 131.808C287.675 131.6 287.655 131.373 287.698 131.154C287.742 130.935 287.847 130.734 288.002 130.573L304.031 113.819" stroke="#FF9900" stroke-width="2" stroke-miterlimit="10" stroke-linecap="round"/>
<path d="M352.7 104.546H362.35C362.649 104.546 362.935 104.429 363.148 104.219C363.36 104.009 363.482 103.725 363.486 103.426V91.4806C363.486 91.1796 363.366 90.8909 363.153 90.6781C362.94 90.4653 362.651 90.3457 362.35 90.3457H347.905C347.728 90.3506 347.554 90.3969 347.398 90.4809C347.242 90.5649 347.108 90.6842 347.006 90.8294C346.905 90.9745 346.838 91.1414 346.813 91.3167C346.787 91.492 346.803 91.6709 346.859 91.8389L351.64 103.785C351.72 104.003 351.864 104.192 352.053 104.328C352.242 104.464 352.467 104.54 352.7 104.546Z" fill="#FFC044"/>
<path d="M298.713 114.312H308.841V110.295H299.729C299.247 110.296 298.773 110.408 298.343 110.623C297.912 110.838 297.538 111.15 297.249 111.535L296.86 112.042V112.46C296.86 112.952 297.056 113.422 297.403 113.77C297.75 114.117 298.221 114.312 298.713 114.312Z" fill="#000220"/>
<path d="M323.526 123.614C323.705 124.421 322.943 132.663 322.898 133.499C322.719 137.302 322.6 141.11 322.54 144.922C324.268 144.668 326.025 144.668 327.753 144.922C329.814 135.992 330.816 126.851 330.741 117.686C330.781 117.082 330.673 116.478 330.427 115.924C330.108 115.412 329.667 114.986 329.143 114.685L313.622 103.844C312.83 103.292 308.812 105.024 307.945 105.338C306.825 105.756 303.688 106.607 303.957 108.249C304.144 108.915 304.53 109.509 305.062 109.952C310.35 115.372 315.967 121.285 323.451 123.525L323.526 123.614Z" fill="#C78400"/>
<path d="M312.157 66.9919C311.605 68.0222 310.663 68.7838 310.111 69.7544C309.545 70.7643 309.276 71.9133 309.334 73.0693C309.389 73.4715 309.327 73.8812 309.155 74.2489C308.408 75.6077 305.286 73.2933 304.957 73.8756C306.301 71.4268 304.957 68.291 305.779 65.6331C306.257 64.4718 306.946 63.4087 307.81 62.4974C308.263 61.8653 308.863 61.3529 309.558 61.0042C309.789 60.8862 310.045 60.8247 310.305 60.8247C310.565 60.8247 310.821 60.8862 311.052 61.0042C311.558 61.4277 311.948 61.9722 312.187 62.587C312.482 63.2505 312.639 63.9666 312.65 64.6924C312.68 65.488 312.511 66.2784 312.157 66.9919Z" fill="white"/>
<path d="M309.289 59.0783C311.201 59.5263 310.783 62.6769 310.425 64.1104C309.483 68.366 305.45 71.3524 301.551 72.8307C297.891 74.2194 293.38 73.6819 289.601 73.204C289.068 73.185 288.551 73.0197 288.107 72.7262C287.868 72.5321 287.688 72.2633 287.449 72.0543C286.971 71.6362 286.314 71.8303 285.761 71.8601C284.612 71.8907 283.492 71.4912 282.622 70.74C281.752 69.9888 281.193 68.9399 281.056 67.7986C280.995 66.6523 281.345 65.5218 282.043 64.6103C282.742 63.6989 283.742 63.0663 284.865 62.8263C286.003 62.6535 287.165 62.8766 288.158 63.4583C289.15 64.0401 289.913 64.945 290.318 66.0217C290.729 65.1637 291.335 64.4134 292.087 63.8302C292.839 63.247 293.716 62.847 294.65 62.662C295.863 62.3814 297.11 62.2709 298.354 62.3335L300.207 62.438C302.044 62.5575 302.104 61.766 303.463 60.6909C304.23 60.0766 305.107 59.6153 306.048 59.3322C307.095 59.0047 308.203 58.9179 309.289 59.0783Z" fill="#252525"/>
<path d="M308.289 73.2041C307.568 72.7917 306.741 72.6045 305.913 72.6666C305.066 72.8516 304.283 73.2589 303.645 73.8468C303.007 74.4347 302.537 75.1818 302.283 76.0113C301.765 77.4174 301.394 78.8737 301.178 80.3566C299.923 87.4941 298.325 94.8108 298.101 102.068C298.016 103.258 298.237 104.451 298.743 105.532C300.102 108.16 302.926 108.205 305.48 107.906L311.455 107.204C312.562 107.217 313.631 106.805 314.443 106.055C314.81 105.532 315.041 104.927 315.115 104.293C315.558 102.123 315.823 99.9205 315.907 97.7076C316.05 93.2134 315.465 88.7257 314.174 84.4181C313.533 82.2668 312.734 80.1657 311.784 78.1317C311.022 76.4892 310.529 74.7123 308.961 73.6521C308.747 73.4873 308.523 73.3376 308.289 73.2041Z" fill="#FFC044"/>
<path d="M336.447 97.2148C337.104 96.9758 337.672 96.6175 337.747 96.0053C337.759 95.829 337.725 95.6527 337.649 95.4932C337.573 95.3337 337.458 95.1964 337.314 95.0944C337.018 94.8998 336.689 94.763 336.343 94.6912C332.824 94.1797 329.253 94.1295 325.721 94.5419C324.004 94.6315 322.301 94.7659 320.613 94.9749C318.521 95.2139 317.55 95.1392 316.445 93.2428C314.951 90.5252 313.323 87.8225 311.963 84.9854C311.286 83.5764 310.687 82.1308 310.171 80.6551C309.752 79.356 309.334 75.9515 307.332 76.3098C305.331 76.6682 305.032 80.5057 304.957 82.0288C304.902 85.5929 306.008 89.0782 308.109 91.9586C309.218 93.5319 310.484 94.9878 311.889 96.3039C313.044 97.7406 314.517 98.8905 316.191 99.6636C318.385 100.052 320.63 100.052 322.823 99.6636C325.235 99.4917 327.634 99.1775 330.009 98.7229C331.532 98.4242 333.026 98.0808 334.49 97.6925C335.151 97.5716 335.805 97.4121 336.447 97.2148Z" fill="white"/>
<path d="M269.134 116.94C270.347 115.038 271.924 113.395 273.773 112.103C275.623 110.811 277.71 109.897 279.913 109.413C282.117 108.929 284.395 108.885 286.616 109.282C288.837 109.679 290.957 110.511 292.856 111.729" stroke="#FF9900" stroke-width="2" stroke-miterlimit="10" stroke-linecap="round"/>
<path d="M1160 147.273V160.979C1160 162.084 1159.1 162.979 1158 162.979H1102C1100.9 162.979 1100 162.084 1100 160.979V149.108C1100 148.003 1100.9 147.108 1102 147.108H1110.24C1110.83 147.108 1111.4 146.844 1111.78 146.389L1122.34 133.719C1122.72 133.263 1123.28 133 1123.88 133H1155.95C1156.93 133 1157.76 133.707 1157.93 134.671L1159.97 146.944C1159.99 147.053 1160 147.163 1160 147.273Z" fill="white"/>
<path d="M1124.71 135.351H1142.35V147.108H1115.29L1124.71 135.351Z" fill="#F5C43C"/>
<rect x="1144.71" y="135.351" width="11.7647" height="11.7565" fill="#F5C43C"/>
<ellipse cx="1117.65" cy="162.391" rx="7.05882" ry="7.05393" fill="#000D32"/>
<ellipse cx="1117.69" cy="162.527" rx="3.07692" ry="3.07479" fill="#F5C43C"/>
<ellipse cx="1149.37" cy="162.391" rx="7.05882" ry="7.05393" fill="#000D32"/>
<ellipse cx="1149.41" cy="162.527" rx="3.07692" ry="3.07479" fill="#F5C43C"/>
<path d="M799.544 130.165L712.234 78.8528C667.194 52.3825 611.35 52.3825 566.31 78.8529L479 130.165H799.544Z" fill="#B9BB26"/>
<path fill-rule="evenodd" clip-rule="evenodd" d="M792.183 125.839L799.544 130.165H479L566.31 78.8528C591.409 64.1018 619.864 57.571 647.934 59.2604C635.159 62.5643 622.735 67.653 611.039 74.5267L523.729 125.839H792.183Z" fill="#B9BB26"/>
<path d="M807.544 127.165L720.234 75.8528C675.194 49.3825 619.35 49.3825 574.31 75.8529L487 127.165H807.544Z" fill="#B9BB26"/>
<path d="M807.544 127.165L720.234 75.8528C675.194 49.3825 619.35 49.3825 574.31 75.8529L487 127.165H807.544Z" fill="url(#paint2_linear_118_1162)"/>
<path fill-rule="evenodd" clip-rule="evenodd" d="M800.785 123.193L807.544 127.165H487L574.31 75.8528C599.329 61.1489 627.682 54.6128 655.665 56.2445C642.377 59.533 629.451 64.745 617.31 71.8803L530 123.193H800.785Z" fill="#B9BB26"/>
<path fill-rule="evenodd" clip-rule="evenodd" d="M800.785 123.193L807.544 127.165H487L574.31 75.8528C599.329 61.1489 627.682 54.6128 655.665 56.2445C642.377 59.533 629.451 64.745 617.31 71.8803L530 123.193H800.785Z" fill="url(#paint3_linear_118_1162)"/>
<path d="M949.884 129.899L918.428 111.574C873.628 85.4753 818.256 85.4753 773.456 111.574L742 129.899H949.884Z" fill="#AFB20F"/>
<path d="M1628.88 129.899L1597.43 111.574C1552.63 85.4753 1497.26 85.4753 1452.46 111.574L1421 129.899H1628.88Z" fill="#AFB20F"/>
<path fill-rule="evenodd" clip-rule="evenodd" d="M948.988 129.643L949.884 130.165H742L773.456 111.84C798.624 97.178 827.129 90.7529 855.221 92.5648C835.394 94.6897 815.91 100.941 798.097 111.318L766.641 129.643H948.988Z" fill="#A6A903"/>
<path d="M1665.07 148.515C1664.84 144.778 1662.9 142.083 1661.94 141.177C1660.59 141.234 1657.51 141.154 1655.01 141.154H1647.54V142.921C1647.25 145.178 1646.67 150.4 1646.67 153.227C1646.67 156.76 1645.81 169.717 1645.81 172.661C1645.81 175.017 1646.39 189.74 1646.67 196.808L1642.36 199.458H1649.84C1650.41 196.12 1651.73 188.504 1652.42 184.734C1653.29 180.023 1652.42 170.306 1652.42 167.95C1652.42 165.594 1652.71 165.594 1653.57 162.944C1654.26 160.824 1655.78 156.76 1656.45 154.994C1657.41 159.312 1659.5 168.892 1660.19 172.661C1661.05 177.373 1667.66 189.74 1669.1 193.274C1670.25 196.101 1670.34 197.593 1670.25 197.985L1666.8 200.047L1670.25 200.636L1672.26 197.985V195.041C1672.26 193.568 1670.82 185.029 1670.25 180.906C1669.79 177.608 1666.99 172.465 1665.65 170.306C1665.46 169.619 1665.07 167.95 1665.07 166.772C1665.07 165.3 1665.36 153.227 1665.07 148.515Z" fill="#C78400"/>
<path d="M1648.81 94.9324C1649.7 93.7277 1649.93 93.9285 1649.93 94.1795L1654.04 95.3089L1652.92 98.3207L1647.31 100.203C1647.44 98.9481 1647.91 96.1371 1648.81 94.9324Z" fill="black"/>
<path d="M1653.32 114.518L1658.15 115.172C1660.25 115.457 1662.1 116.697 1663.18 118.536C1663.47 119.034 1663.71 119.495 1663.92 119.937C1665.44 123.171 1665.75 126.812 1665.75 130.385C1665.75 133.504 1665.77 136.921 1664.78 138.906C1663.89 140.691 1662.41 141.827 1659.07 143.846C1657.32 144.902 1655 144.578 1653.32 144.862C1651.98 145.089 1651.27 144.956 1651.08 144.862C1651.27 144.389 1651.25 143.104 1650.8 142.877C1650.15 143.066 1648.68 143.501 1648.01 143.727C1647.62 143.857 1647.47 143.931 1647.42 143.971C1647.43 143.985 1647.44 143.998 1647.45 144.011C1647.41 144.011 1647.38 144.001 1647.42 143.971C1646.75 143.081 1645.16 140.516 1644.93 136.921L1644.66 132.564C1644.66 130.305 1644.55 126.714 1643.82 125.011C1643.36 123.951 1642.98 123.404 1642.7 123.309C1641.3 123.971 1638.17 125.351 1636.83 125.578C1635.15 125.861 1631 126.346 1630.12 126.145C1629.51 126.006 1629.02 125.339 1629 124.444C1628.97 122.966 1630.12 121.04 1631.8 119.055C1633.14 117.467 1634.96 115.369 1635.71 114.518C1636.18 113.951 1637.27 112.646 1637.95 111.966C1638.78 111.115 1640.46 108.846 1640.74 108.846C1640.96 108.846 1642.14 109.792 1642.7 110.264L1642.98 110.548C1642.23 112.155 1640.52 115.652 1639.62 116.787C1638.73 117.921 1637.84 119.612 1637.65 120.273C1638.68 119.234 1641.36 116.9 1642.7 116.22C1644.04 115.539 1645.87 114.991 1646.61 114.802L1647.73 114.518C1647.64 115.369 1647.73 117.07 1648.85 117.07C1649.97 117.07 1652.29 115.369 1653.32 114.518Z" fill="#F5C43C"/>
<rect x="1649.18" y="105.85" width="5.97931" height="12.0469" fill="white"/>
<path fill-rule="evenodd" clip-rule="evenodd" d="M1652.75 95.6813L1651.1 96.0208C1648.56 96.5471 1646.38 98.2091 1645.2 100.539L1644.85 101.23C1644.5 101.914 1644.22 102.634 1644.11 103.395C1644.03 104.001 1643.95 104.812 1643.95 105.734C1643.95 106.766 1644.26 107.761 1644.56 108.483C1644.87 109.229 1645.51 109.754 1646.26 110.047C1646.8 110.258 1647.37 110.341 1647.95 110.29L1648.87 110.208C1650.51 110.061 1652.07 109.382 1653.3 108.272L1654.67 107.045C1654.74 107.067 1654.81 107.089 1654.88 107.11C1654.99 107.147 1655.1 107.18 1655.2 107.213C1655.99 107.489 1656.86 107.361 1657.56 106.866L1658.18 106.427C1658.53 106.179 1658.77 105.791 1658.86 105.349C1659.02 104.529 1658.61 103.702 1657.89 103.393L1657.24 103.119L1657.77 101.902C1658.64 99.8782 1657.93 97.5192 1656.09 96.3185C1655.1 95.6715 1653.9 95.4426 1652.75 95.6813Z" fill="white"/>
<path d="M1653.29 116.391C1654.79 115.262 1655.03 114.132 1655.16 113.379C1656.06 113.379 1656.78 114.383 1657.03 114.885C1657.15 115.262 1657.03 116.466 1655.53 118.273C1654.04 120.081 1652.92 120.532 1652.54 120.532C1652.67 120.281 1652.69 119.553 1651.8 118.65C1650.9 117.746 1650.05 117.521 1649.93 117.521C1650.43 117.395 1652.22 117.199 1653.29 116.391Z" fill="#FFEBB2"/>
<path d="M1649.55 115.638C1649.85 116.542 1650.3 117.395 1650.67 117.521C1649.55 118.273 1647.31 119.704 1647.31 119.403C1647.31 119.026 1646.94 117.521 1646.94 116.391C1646.94 115.488 1647.19 114.76 1647.31 114.509L1649.18 113.379C1649.18 113.756 1649.25 114.735 1649.55 115.638Z" fill="#FFEBB2"/>
<path d="M1658.22 108.149C1656.98 108.519 1655.03 108.113 1654.21 107.863C1653.91 107.46 1653.66 106.71 1655.1 106.94C1656.89 107.227 1657.27 105.59 1657.28 104.805C1657.28 104.162 1657.14 103.364 1656.42 103.249C1655.7 103.134 1655.23 103.769 1654.46 104C1653.68 104.231 1653.79 103.539 1654.62 102.962C1655.45 102.385 1655.53 99.5592 1655.39 98.1177C1655.25 96.6763 1653.4 96.7349 1652.37 96.2165C1651.35 95.6981 1649.19 95.3533 1648.58 94.5463L1648.58 94.5461C1647.97 93.7392 1647.36 92.9323 1648 91.26C1648.63 89.5875 1650 90.3432 1650.32 90.5668C1650.98 91.0277 1651.8 91.9179 1652.92 92.2936C1654.04 92.6693 1655.53 91.9155 1658.73 93.3302C1661.8 94.6866 1661.31 97.3555 1661.31 97.3555C1661.31 97.3555 1662.84 98.7291 1662.4 102.141C1662.13 104.225 1659.77 107.687 1658.22 108.149Z" fill="black"/>
<path d="M1648.32 143.258C1649.78 142.021 1651.15 141.918 1651.66 142.021C1651.96 143.052 1652.45 145.238 1651.96 145.733C1651.36 146.352 1648.32 147.589 1647.41 147.898C1646.49 148.208 1646.19 147.898 1646.19 146.97C1646.19 146.042 1646.49 144.805 1648.32 143.258Z" fill="white"/>
<path d="M1644.36 109.667C1643.44 110.989 1642.35 111.373 1641.92 111.401C1641.45 110.632 1640.58 108.967 1640.87 108.459C1641.23 107.825 1643.42 106.158 1644.1 105.708C1644.77 105.258 1645.08 105.443 1645.28 106.194C1645.48 106.946 1645.5 108.015 1644.36 109.667Z" fill="white"/>
<path fill-rule="evenodd" clip-rule="evenodd" d="M1581.65 155.634C1581.65 151.341 1581.05 143.389 1581.05 143.389C1581.05 143.389 1574.69 146.717 1571.14 146.717C1567.59 146.717 1564.86 143.389 1564.86 143.389C1564.34 144.793 1564.12 146.289 1564.21 147.783V155.634C1564.21 158.838 1565.13 165.465 1565.92 171.125C1566.26 173.535 1566.57 175.769 1566.77 177.489C1567.15 181.865 1567.15 186.266 1566.77 190.642C1566.77 190.642 1566.8 190.657 1566.85 190.682C1566.15 191.426 1566.63 192.572 1566.98 192.983C1567.45 193.515 1568.05 193.907 1568.72 194.114C1570.92 194.575 1574.69 192.673 1575 191.233C1575.22 190.234 1573.63 190.301 1572.25 190.36C1571.84 190.377 1571.46 190.393 1571.14 190.382V184.289C1571.14 180.255 1572.08 155.634 1572.08 155.634C1572.08 155.634 1572.52 156.83 1573.35 158.861C1573.87 160.126 1574.32 163.211 1574.77 166.347C1575.04 168.248 1575.32 170.168 1575.62 171.712C1576.4 175.803 1575.62 195.324 1575.62 195.324C1575.62 195.324 1575.64 195.397 1575.69 195.513C1575.82 196.146 1576.11 196.735 1576.54 197.223C1577 197.755 1577.6 198.146 1578.28 198.35C1580.47 198.826 1584.24 196.909 1584.56 195.469C1584.78 194.476 1583.2 194.537 1581.83 194.591C1581.21 194.615 1580.63 194.637 1580.27 194.561C1580.03 194.567 1579.8 194.577 1579.56 194.593V190.642C1579.56 189.604 1579.95 183.808 1580.39 177.187C1580.97 168.368 1581.65 158.086 1581.65 155.634Z" fill="#F5C43C"/>
<path fill-rule="evenodd" clip-rule="evenodd" d="M1580.73 101.896C1580.73 101.823 1580.72 101.783 1580.72 101.783L1581.14 101.755L1580.73 101.896ZM1576.9 112.498C1577.98 113.159 1579.25 113.652 1579.99 112.92C1581.36 111.571 1580.81 102.984 1580.73 101.896L1571.97 104.953L1574.4 109.834L1572.65 110.514C1572.29 111.999 1572.06 113.512 1571.97 115.037C1571.97 116.694 1573.97 118.394 1575.27 119.057C1575.41 119.159 1575.58 119.223 1575.75 119.244C1575.93 119.264 1576.1 119.241 1576.27 119.175C1576.43 119.109 1576.57 119.003 1576.68 118.866C1576.8 118.73 1576.87 118.567 1576.9 118.394V112.632V112.498Z" fill="white"/>
<path fill-rule="evenodd" clip-rule="evenodd" d="M1571.64 112.242C1571.64 112.242 1574.73 112.329 1575.33 110.888C1575.93 109.447 1575.59 105.126 1577.02 105.126C1578.45 105.126 1580.81 105.126 1580.81 103.267C1580.81 101.409 1580.81 98.0663 1576.23 98.0663C1571.65 98.0663 1570.51 99.3629 1569.08 101.308C1567.65 103.253 1566.22 109.548 1567.65 110.917C1568.79 111.793 1570.2 112.259 1571.64 112.242Z" fill="#4B4B4B"/>
<path fill-rule="evenodd" clip-rule="evenodd" d="M1570.99 104.564C1570.5 104.172 1569.92 103.921 1569.3 103.837C1568.68 103.753 1568.05 103.84 1567.47 104.088C1566.49 104.477 1565.77 106.609 1565.47 107.82C1565.06 110.135 1565.06 112.506 1565.47 114.821C1565.96 118.322 1566.14 122.759 1565.47 122.759C1566.09 122.742 1566.71 122.597 1567.27 122.332C1567.84 122.067 1568.35 121.687 1568.76 121.218C1570.32 119.417 1571.62 109.375 1571.62 107.82C1571.62 106.264 1571.68 105.442 1570.99 104.564Z" fill="#4B4B4B"/>
<path fill-rule="evenodd" clip-rule="evenodd" d="M1579.72 128.436C1579.72 128.436 1582.41 135.509 1584.54 135.509C1586.68 135.509 1589.15 132.311 1590.38 130.38C1591.88 127.412 1593.21 124.357 1594.36 121.232C1594.96 120.366 1595.48 119.445 1595.9 118.481C1596.12 117.789 1596.17 117.059 1596.08 116.342C1595.98 115.625 1595.72 114.939 1595.33 114.332C1594.57 113.741 1593.21 113.554 1592.21 115.369C1591.88 116.028 1591.71 116.756 1591.71 117.494C1591.71 118.232 1591.88 118.959 1592.21 119.619C1592.21 119.619 1588.91 124.992 1587.92 126.822C1586.93 128.652 1585.77 129.444 1585.14 129.444C1584.51 129.444 1583.43 127.816 1583.43 126.419C1583.36 125.402 1583.05 124.416 1582.54 123.537L1579.72 128.436Z" fill="white"/>
<path fill-rule="evenodd" clip-rule="evenodd" d="M1576.9 115.888C1576.49 116.178 1576.02 116.369 1575.52 116.447C1575.03 116.524 1574.52 116.486 1574.04 116.334C1573.11 115.869 1572.27 115.229 1571.58 114.447C1570.04 115.403 1568.74 116.716 1567.79 118.276C1566.85 119.837 1566.29 121.601 1566.16 123.422C1565.61 129.761 1565.1 144.182 1564.31 144.182C1563.53 144.182 1567.03 147.885 1571.6 147.885C1575 147.681 1578.35 146.882 1581.48 145.522L1580.78 129.07C1580.78 129.07 1580.67 120.267 1579.74 118.87C1578.91 117.765 1577.96 116.763 1576.9 115.888Z" fill="#C78400"/>
<path fill-rule="evenodd" clip-rule="evenodd" d="M1577.86 127.581C1577.93 127.747 1578.03 127.897 1578.16 128.021C1578.29 128.145 1578.44 128.24 1578.61 128.301C1578.78 128.363 1578.95 128.388 1579.13 128.375C1579.31 128.363 1579.48 128.313 1579.64 128.23C1580.14 127.916 1580.7 127.701 1581.28 127.596H1582.1C1582.27 127.596 1582.43 127.562 1582.58 127.495C1582.73 127.428 1582.87 127.329 1582.98 127.206C1583.1 127.082 1583.18 126.936 1583.23 126.778C1583.28 126.619 1583.3 126.451 1583.29 126.285C1583.13 124.387 1582.86 122.501 1582.47 120.637C1582.04 119.341 1580.05 116.027 1578.39 116.69C1576.73 117.353 1576.39 119.701 1576.39 121.17C1576.56 122.855 1576.87 124.522 1577.31 126.155L1577.86 127.581Z" fill="#C78400"/>
<path d="M828.856 100.14L843.326 84L857.796 99.7157V129.873H828.856V100.14Z" fill="#FFDB94"/>
<rect x="792.256" y="100.14" width="36.6001" height="29.7324" fill="#FFD072"/>
<path d="M843.751 84.0001L827.579 102.264H788L803.321 84.0001H843.751Z" fill="#FFAF11"/>
<rect width="2.55099" height="23.4826" transform="matrix(0.7078 -0.706413 0.7078 0.706413 841.624 85.8022)" fill="#FFAF11"/>
<path d="M834.814 117.874C834.814 113.739 838.166 110.388 842.3 110.388C846.434 110.388 849.786 113.739 849.786 117.874V129.91C849.786 129.96 849.746 130 849.696 130H834.904C834.854 130 834.814 129.96 834.814 129.91V117.874Z" fill="#FFAF11"/>
<path fill-rule="evenodd" clip-rule="evenodd" d="M843.25 110.447C841.005 111.74 839.493 114.163 839.493 116.94V129.906C839.493 129.958 839.535 130 839.587 130H834.904C834.854 130 834.814 129.96 834.814 129.91V117.873C834.814 113.739 838.166 110.387 842.3 110.387C842.622 110.387 842.939 110.408 843.25 110.447Z" fill="#EB9C00"/>
<rect x="814.386" y="107.786" width="8.51165" height="8.49497" rx="1" fill="#C4C4C4"/>
<path d="M814.386 108.786C814.386 108.234 814.834 107.786 815.386 107.786H821.898C822.45 107.786 822.898 108.234 822.898 108.786V115.281C822.898 115.833 822.45 116.281 821.898 116.281H815.386C814.834 116.281 814.386 115.833 814.386 115.281V108.786Z" fill="white"/>
<rect x="799.916" y="107.786" width="8.51165" height="8.49497" rx="1" fill="#C4C4C4"/>
<path d="M799.916 108.786C799.916 108.234 800.364 107.786 800.916 107.786H807.428C807.98 107.786 808.428 108.234 808.428 108.786V115.281C808.428 115.833 807.98 116.281 807.428 116.281H800.916C800.364 116.281 799.916 115.833 799.916 115.281V108.786Z" fill="white"/>
<rect x="607" y="93" width="3" height="39" fill="#F0F0F0"/>
<path d="M606.467 80.2981C606.433 79.8148 606.528 79.3309 606.744 78.8968C607.742 76.8871 610.608 76.8871 611.606 78.8968C611.822 79.3309 611.917 79.8148 611.883 80.2981L611.147 90.5546C611.073 91.589 610.212 92.3902 609.175 92.3902C608.138 92.3902 607.277 91.589 607.203 90.5546L606.467 80.2981Z" fill="white"/>
<path d="M595.192 97.6002C594.784 97.8007 594.433 98.1003 594.171 98.4715C592.833 100.366 594.33 102.959 596.64 102.748C597.093 102.706 597.527 102.552 597.905 102.299L607.293 96.0117C608.153 95.4358 608.419 94.2916 607.901 93.3953C607.384 92.4989 606.26 92.1573 605.331 92.6141L595.192 97.6002Z" fill="white"/>
<path d="M621.887 97.6019C622.295 97.8023 622.646 98.1018 622.908 98.4728C624.246 100.367 622.749 102.959 620.438 102.748C619.985 102.707 619.55 102.553 619.172 102.3L609.783 96.0157C608.923 95.44 608.657 94.2962 609.175 93.4C609.693 92.5037 610.817 92.1621 611.746 92.6186L621.887 97.6019Z" fill="white"/>
<ellipse cx="608.945" cy="93.0798" rx="3.45056" ry="3.44817" fill="#FFDB94"/>
<rect x="646" y="93" width="3" height="39" fill="#F0F0F0"/>
<path d="M644.859 80.2981C644.825 79.8148 644.92 79.3309 645.136 78.8968C646.133 76.8871 649 76.8871 649.998 78.8968C650.214 79.3309 650.309 79.8148 650.274 80.2981L649.539 90.5546C649.465 91.589 648.604 92.3902 647.567 92.3902C646.53 92.3902 645.669 91.589 645.595 90.5546L644.859 80.2981Z" fill="white"/>
<path d="M633.584 97.6002C633.176 97.8007 632.825 98.1003 632.563 98.4715C631.225 100.366 632.722 102.959 635.032 102.748C635.484 102.706 635.919 102.552 636.297 102.299L645.684 96.0117C646.544 95.4358 646.811 94.2916 646.293 93.3953C645.775 92.4989 644.652 92.1573 643.723 92.6141L633.584 97.6002Z" fill="white"/>
<path d="M660.279 97.6019C660.686 97.8023 661.038 98.1018 661.3 98.4728C662.638 100.367 661.14 102.959 658.83 102.748C658.377 102.707 657.942 102.553 657.564 102.3L648.175 96.0157C647.315 95.44 647.049 94.2962 647.567 93.4C648.085 92.5037 649.209 92.1621 650.138 92.6186L660.279 97.6019Z" fill="white"/>
<ellipse cx="647.337" cy="93.0798" rx="3.45056" ry="3.44817" fill="#FFDB94"/>
<rect x="569" y="93" width="3" height="39" fill="#F0F0F0"/>
<path d="M568.076 80.2981C568.041 79.8148 568.136 79.3309 568.352 78.8968C569.35 76.8871 572.217 76.8871 573.214 78.8968C573.43 79.3309 573.525 79.8148 573.491 80.2981L572.755 90.5546C572.681 91.589 571.82 92.3902 570.783 92.3902C569.746 92.3902 568.885 91.589 568.811 90.5546L568.076 80.2981Z" fill="white"/>
<path d="M556.8 97.6002C556.392 97.8007 556.041 98.1003 555.779 98.4715C554.441 100.366 555.938 102.959 558.248 102.748C558.701 102.706 559.136 102.552 559.513 102.299L568.901 96.0117C569.761 95.4358 570.027 94.2916 569.509 93.3953C568.992 92.4989 567.868 92.1573 566.939 92.6141L556.8 97.6002Z" fill="white"/>
<path d="M583.495 97.6019C583.903 97.8023 584.254 98.1018 584.516 98.4728C585.854 100.367 584.357 102.959 582.046 102.748C581.593 102.707 581.158 102.553 580.781 102.3L571.391 96.0157C570.531 95.44 570.265 94.2962 570.783 93.4C571.301 92.5037 572.425 92.1621 573.354 92.6186L583.495 97.6019Z" fill="white"/>
<ellipse cx="570.553" cy="93.0798" rx="3.45056" ry="3.44817" fill="#FFDB94"/>
<rect width="1920" height="57.4808" transform="translate(0 218)" fill="#FFAF11"/>
<path d="M867.839 248.259H870.613C870.557 249.169 870.307 249.976 869.861 250.681C869.422 251.386 868.807 251.936 868.015 252.332C867.23 252.728 866.283 252.926 865.176 252.926C864.31 252.926 863.534 252.777 862.848 252.481C862.161 252.178 861.574 251.745 861.085 251.182C860.603 250.619 860.235 249.939 859.981 249.141C859.727 248.343 859.601 247.449 859.601 246.46V245.523C859.601 244.533 859.73 243.639 859.99 242.841C860.256 242.037 860.633 241.354 861.122 240.791C861.617 240.228 862.208 239.795 862.894 239.492C863.581 239.189 864.347 239.038 865.195 239.038C866.32 239.038 867.27 239.242 868.043 239.65C868.822 240.058 869.425 240.621 869.852 241.339C870.285 242.056 870.545 242.872 870.631 243.788H867.848C867.817 243.243 867.709 242.783 867.523 242.405C867.338 242.022 867.056 241.734 866.679 241.543C866.308 241.345 865.813 241.246 865.195 241.246C864.731 241.246 864.326 241.332 863.979 241.506C863.633 241.679 863.342 241.942 863.107 242.294C862.872 242.647 862.696 243.092 862.579 243.63C862.467 244.162 862.412 244.787 862.412 245.504V246.46C862.412 247.159 862.464 247.774 862.569 248.306C862.674 248.832 862.835 249.277 863.052 249.642C863.274 250 863.559 250.273 863.905 250.458C864.258 250.638 864.681 250.727 865.176 250.727C865.758 250.727 866.237 250.634 866.614 250.449C866.992 250.263 867.279 249.988 867.477 249.623C867.681 249.258 867.802 248.804 867.839 248.259ZM871.847 247.823V247.629C871.847 246.893 871.952 246.215 872.162 245.597C872.372 244.972 872.679 244.431 873.081 243.973C873.483 243.516 873.977 243.16 874.565 242.906C875.153 242.647 875.827 242.517 876.587 242.517C877.348 242.517 878.025 242.647 878.619 242.906C879.213 243.16 879.711 243.516 880.113 243.973C880.521 244.431 880.83 244.972 881.041 245.597C881.251 246.215 881.356 246.893 881.356 247.629V247.823C881.356 248.553 881.251 249.23 881.041 249.855C880.83 250.474 880.521 251.015 880.113 251.479C879.711 251.936 879.216 252.292 878.628 252.546C878.041 252.799 877.367 252.926 876.606 252.926C875.845 252.926 875.168 252.799 874.574 252.546C873.987 252.292 873.489 251.936 873.081 251.479C872.679 251.015 872.372 250.474 872.162 249.855C871.952 249.23 871.847 248.553 871.847 247.823ZM874.519 247.629V247.823C874.519 248.244 874.556 248.637 874.63 249.002C874.704 249.367 874.822 249.688 874.982 249.966C875.149 250.239 875.366 250.452 875.632 250.607C875.898 250.761 876.222 250.839 876.606 250.839C876.977 250.839 877.296 250.761 877.562 250.607C877.827 250.452 878.041 250.239 878.202 249.966C878.362 249.688 878.48 249.367 878.554 249.002C878.635 248.637 878.675 248.244 878.675 247.823V247.629C878.675 247.22 878.635 246.837 878.554 246.478C878.48 246.113 878.359 245.792 878.192 245.513C878.032 245.229 877.818 245.006 877.552 244.845C877.286 244.685 876.965 244.604 876.587 244.604C876.21 244.604 875.889 244.685 875.623 244.845C875.363 245.006 875.149 245.229 874.982 245.513C874.822 245.792 874.704 246.113 874.63 246.478C874.556 246.837 874.519 247.22 874.519 247.629ZM885.67 244.632V256.6H882.998V242.702H885.475L885.67 244.632ZM892.025 247.61V247.805C892.025 248.535 891.938 249.212 891.765 249.837C891.598 250.461 891.351 251.006 891.023 251.469C890.695 251.927 890.287 252.286 889.798 252.546C889.316 252.799 888.759 252.926 888.128 252.926C887.516 252.926 886.984 252.802 886.533 252.555C886.081 252.307 885.701 251.961 885.392 251.516C885.089 251.064 884.844 250.542 884.659 249.948C884.473 249.354 884.331 248.717 884.232 248.037V247.527C884.331 246.797 884.473 246.129 884.659 245.523C884.844 244.91 885.089 244.382 885.392 243.936C885.701 243.485 886.078 243.135 886.523 242.888C886.975 242.64 887.504 242.517 888.11 242.517C888.747 242.517 889.307 242.637 889.789 242.879C890.278 243.12 890.686 243.466 891.014 243.918C891.348 244.369 891.598 244.907 891.765 245.532C891.938 246.157 892.025 246.849 892.025 247.61ZM889.344 247.805V247.61C889.344 247.183 889.307 246.791 889.232 246.432C889.164 246.067 889.053 245.748 888.898 245.476C888.75 245.204 888.552 244.994 888.305 244.845C888.063 244.691 887.77 244.613 887.423 244.613C887.058 244.613 886.746 244.672 886.486 244.79C886.233 244.907 886.026 245.077 885.865 245.3C885.704 245.523 885.583 245.789 885.503 246.098C885.423 246.407 885.373 246.757 885.354 247.146V248.436C885.385 248.893 885.472 249.305 885.614 249.67C885.757 250.028 885.976 250.313 886.273 250.523C886.57 250.733 886.959 250.839 887.442 250.839C887.794 250.839 888.091 250.761 888.333 250.607C888.574 250.446 888.769 250.226 888.917 249.948C889.072 249.67 889.18 249.348 889.242 248.983C889.31 248.618 889.344 248.225 889.344 247.805ZM896.552 251.609L899.215 242.702H902.082L898.046 254.253C897.959 254.506 897.842 254.778 897.693 255.069C897.551 255.36 897.356 255.635 897.109 255.895C896.868 256.161 896.562 256.377 896.19 256.544C895.826 256.711 895.377 256.795 894.845 256.795C894.592 256.795 894.384 256.779 894.224 256.748C894.063 256.717 893.871 256.674 893.648 256.618V254.661C893.716 254.661 893.788 254.661 893.862 254.661C893.936 254.667 894.007 254.67 894.075 254.67C894.428 254.67 894.715 254.63 894.938 254.549C895.161 254.469 895.34 254.345 895.476 254.178C895.612 254.018 895.72 253.807 895.801 253.548L896.552 251.609ZM895.439 242.702L897.619 249.976L898 252.805L896.181 253L892.572 242.702H895.439ZM908.047 239.233H913.084C914.117 239.233 915.005 239.387 915.747 239.696C916.495 240.006 917.071 240.463 917.473 241.069C917.875 241.676 918.076 242.421 918.076 243.305C918.076 244.029 917.952 244.651 917.705 245.17C917.463 245.683 917.12 246.113 916.675 246.46C916.236 246.8 915.719 247.072 915.125 247.276L914.244 247.74H909.865L909.847 245.569H913.103C913.592 245.569 913.997 245.482 914.318 245.309C914.64 245.136 914.881 244.895 915.042 244.586C915.209 244.276 915.292 243.918 915.292 243.509C915.292 243.076 915.212 242.702 915.051 242.387C914.89 242.071 914.646 241.83 914.318 241.663C913.991 241.496 913.579 241.413 913.084 241.413H910.83V252.74H908.047V239.233ZM915.599 252.74L912.519 246.719L915.459 246.701L918.577 252.611V252.74H915.599ZM922.872 242.702V252.74H920.191V242.702H922.872ZM920.024 240.086C920.024 239.696 920.16 239.375 920.432 239.121C920.704 238.868 921.069 238.741 921.527 238.741C921.978 238.741 922.34 238.868 922.612 239.121C922.891 239.375 923.03 239.696 923.03 240.086C923.03 240.476 922.891 240.797 922.612 241.051C922.34 241.305 921.978 241.431 921.527 241.431C921.069 241.431 920.704 241.305 920.432 241.051C920.16 240.797 920.024 240.476 920.024 240.086ZM931.435 242.702H933.856V252.406C933.856 253.322 933.652 254.098 933.244 254.735C932.842 255.378 932.279 255.864 931.556 256.192C930.832 256.526 929.991 256.693 929.032 256.693C928.612 256.693 928.166 256.637 927.696 256.526C927.232 256.414 926.787 256.241 926.36 256.006C925.94 255.771 925.587 255.474 925.303 255.115L926.481 253.538C926.79 253.897 927.149 254.175 927.557 254.373C927.965 254.577 928.417 254.679 928.912 254.679C929.394 254.679 929.802 254.59 930.136 254.41C930.47 254.237 930.727 253.98 930.906 253.64C931.086 253.306 931.175 252.901 931.175 252.425V245.022L931.435 242.702ZM924.681 247.842V247.647C924.681 246.88 924.774 246.184 924.959 245.56C925.151 244.929 925.42 244.388 925.767 243.936C926.119 243.485 926.546 243.135 927.047 242.888C927.548 242.64 928.114 242.517 928.745 242.517C929.413 242.517 929.972 242.64 930.424 242.888C930.875 243.135 931.246 243.488 931.537 243.945C931.828 244.397 932.054 244.932 932.214 245.55C932.381 246.163 932.511 246.834 932.604 247.564V247.99C932.511 248.689 932.372 249.339 932.187 249.939C932.001 250.539 931.757 251.064 931.454 251.516C931.151 251.961 930.773 252.307 930.322 252.555C929.876 252.802 929.345 252.926 928.726 252.926C928.108 252.926 927.548 252.799 927.047 252.546C926.552 252.292 926.128 251.936 925.776 251.479C925.423 251.021 925.151 250.483 924.959 249.864C924.774 249.246 924.681 248.572 924.681 247.842ZM927.353 247.647V247.842C927.353 248.256 927.393 248.643 927.474 249.002C927.554 249.36 927.678 249.679 927.845 249.957C928.018 250.229 928.231 250.443 928.485 250.597C928.745 250.746 929.051 250.82 929.403 250.82C929.892 250.82 930.291 250.718 930.6 250.514C930.909 250.304 931.141 250.016 931.296 249.651C931.451 249.286 931.54 248.866 931.565 248.389V247.174C931.553 246.784 931.5 246.435 931.407 246.126C931.314 245.81 931.185 245.541 931.018 245.319C930.851 245.096 930.634 244.923 930.368 244.799C930.102 244.675 929.787 244.613 929.422 244.613C929.069 244.613 928.763 244.694 928.503 244.855C928.25 245.009 928.036 245.223 927.863 245.495C927.696 245.767 927.569 246.089 927.483 246.46C927.396 246.825 927.353 247.22 927.353 247.647ZM938.542 238.49V252.74H935.87V238.49H938.542ZM938.161 247.369H937.428C937.434 246.67 937.527 246.027 937.707 245.439C937.886 244.845 938.143 244.332 938.477 243.899C938.811 243.46 939.209 243.12 939.673 242.879C940.143 242.637 940.663 242.517 941.232 242.517C941.727 242.517 942.175 242.588 942.577 242.73C942.985 242.866 943.335 243.089 943.625 243.398C943.922 243.701 944.151 244.1 944.312 244.595C944.473 245.09 944.553 245.69 944.553 246.395V252.74H941.863V246.376C941.863 245.931 941.798 245.581 941.668 245.328C941.544 245.068 941.362 244.886 941.121 244.78C940.886 244.669 940.595 244.613 940.249 244.613C939.865 244.613 939.537 244.685 939.265 244.827C938.999 244.969 938.786 245.167 938.625 245.421C938.464 245.668 938.347 245.959 938.272 246.293C938.198 246.627 938.161 246.985 938.161 247.369ZM951.502 242.702V244.595H945.657V242.702H951.502ZM947.104 240.225H949.776V249.716C949.776 250.007 949.813 250.229 949.888 250.384C949.968 250.539 950.086 250.647 950.24 250.709C950.395 250.764 950.59 250.792 950.825 250.792C950.992 250.792 951.14 250.786 951.27 250.774C951.406 250.755 951.521 250.736 951.613 250.718L951.623 252.685C951.394 252.759 951.146 252.818 950.88 252.861C950.614 252.904 950.321 252.926 949.999 252.926C949.411 252.926 948.898 252.83 948.459 252.638C948.026 252.44 947.692 252.125 947.457 251.692C947.222 251.259 947.104 250.69 947.104 249.985V240.225ZM957.857 251.451C957.857 251.055 957.993 250.724 958.265 250.458C958.543 250.192 958.911 250.059 959.369 250.059C959.827 250.059 960.192 250.192 960.464 250.458C960.742 250.724 960.881 251.055 960.881 251.451C960.881 251.847 960.742 252.178 960.464 252.444C960.192 252.709 959.827 252.842 959.369 252.842C958.911 252.842 958.543 252.709 958.265 252.444C957.993 252.178 957.857 251.847 957.857 251.451ZM957.857 243.797C957.857 243.401 957.993 243.07 958.265 242.804C958.543 242.538 958.911 242.405 959.369 242.405C959.827 242.405 960.192 242.538 960.464 242.804C960.742 243.07 960.881 243.401 960.881 243.797C960.881 244.193 960.742 244.524 960.464 244.79C960.192 245.056 959.827 245.189 959.369 245.189C958.911 245.189 958.543 245.056 958.265 244.79C957.993 244.524 957.857 244.193 957.857 243.797ZM973.554 239.233V252.74H970.78V239.233H973.554ZM977.71 239.233V241.413H966.689V239.233H977.71ZM981.152 244.892V252.74H978.48V242.702H980.995L981.152 244.892ZM984.177 242.637L984.13 245.114C984 245.096 983.843 245.08 983.657 245.068C983.478 245.049 983.314 245.04 983.166 245.04C982.788 245.04 982.46 245.09 982.182 245.189C981.91 245.281 981.681 245.421 981.496 245.606C981.316 245.792 981.18 246.017 981.087 246.283C981.001 246.549 980.951 246.852 980.939 247.193L980.401 247.026C980.401 246.376 980.466 245.779 980.596 245.235C980.726 244.685 980.914 244.205 981.162 243.797C981.415 243.389 981.724 243.073 982.089 242.851C982.454 242.628 982.872 242.517 983.342 242.517C983.49 242.517 983.642 242.529 983.796 242.554C983.951 242.572 984.078 242.6 984.177 242.637ZM990.541 250.477V246.005C990.541 245.683 990.488 245.408 990.383 245.179C990.278 244.944 990.114 244.762 989.892 244.632C989.675 244.502 989.394 244.437 989.047 244.437C988.75 244.437 988.494 244.49 988.277 244.595C988.061 244.694 987.894 244.839 987.776 245.031C987.659 245.216 987.6 245.436 987.6 245.69H984.928C984.928 245.263 985.027 244.858 985.225 244.474C985.423 244.091 985.711 243.754 986.088 243.463C986.465 243.166 986.914 242.934 987.433 242.767C987.959 242.6 988.546 242.517 989.196 242.517C989.975 242.517 990.668 242.647 991.274 242.906C991.88 243.166 992.356 243.556 992.703 244.075C993.055 244.595 993.231 245.244 993.231 246.024V250.319C993.231 250.869 993.265 251.321 993.333 251.673C993.402 252.02 993.5 252.323 993.63 252.583V252.74H990.931C990.801 252.468 990.702 252.128 990.634 251.72C990.572 251.305 990.541 250.891 990.541 250.477ZM990.894 246.627L990.912 248.139H989.418C989.066 248.139 988.76 248.179 988.5 248.259C988.24 248.34 988.027 248.454 987.86 248.603C987.693 248.745 987.569 248.912 987.489 249.104C987.415 249.295 987.377 249.506 987.377 249.735C987.377 249.963 987.43 250.171 987.535 250.356C987.64 250.535 987.792 250.678 987.99 250.783C988.188 250.882 988.42 250.931 988.686 250.931C989.088 250.931 989.437 250.851 989.734 250.69C990.031 250.529 990.26 250.331 990.42 250.096C990.587 249.861 990.674 249.639 990.68 249.428L991.385 250.56C991.286 250.814 991.15 251.077 990.977 251.349C990.81 251.621 990.597 251.878 990.337 252.119C990.077 252.354 989.765 252.549 989.4 252.703C989.035 252.852 988.602 252.926 988.101 252.926C987.464 252.926 986.886 252.799 986.366 252.546C985.853 252.286 985.445 251.93 985.142 251.479C984.845 251.021 984.696 250.501 984.696 249.92C984.696 249.394 984.795 248.927 984.993 248.519C985.191 248.111 985.482 247.768 985.865 247.489C986.255 247.205 986.74 246.992 987.322 246.849C987.903 246.701 988.577 246.627 989.344 246.627H990.894ZM999.438 250.839C999.766 250.839 1000.06 250.777 1000.31 250.653C1000.56 250.523 1000.76 250.344 1000.9 250.115C1001.05 249.88 1001.13 249.605 1001.14 249.289H1003.65C1003.64 249.994 1003.46 250.622 1003.08 251.173C1002.71 251.717 1002.22 252.147 1001.59 252.462C1000.97 252.771 1000.27 252.926 999.494 252.926C998.714 252.926 998.034 252.796 997.453 252.536C996.877 252.277 996.398 251.918 996.015 251.46C995.631 250.996 995.344 250.458 995.152 249.846C994.96 249.227 994.864 248.566 994.864 247.861V247.591C994.864 246.88 994.96 246.218 995.152 245.606C995.344 244.988 995.631 244.45 996.015 243.992C996.398 243.528 996.877 243.166 997.453 242.906C998.028 242.647 998.702 242.517 999.475 242.517C1000.3 242.517 1001.02 242.674 1001.64 242.99C1002.26 243.305 1002.75 243.757 1003.1 244.344C1003.46 244.926 1003.64 245.615 1003.65 246.413H1001.14C1001.13 246.079 1001.06 245.776 1000.92 245.504C1000.79 245.232 1000.6 245.015 1000.35 244.855C1000.1 244.688 999.794 244.604 999.429 244.604C999.039 244.604 998.721 244.688 998.473 244.855C998.226 245.015 998.034 245.238 997.898 245.523C997.762 245.801 997.666 246.119 997.61 246.478C997.561 246.831 997.536 247.202 997.536 247.591V247.861C997.536 248.25 997.561 248.624 997.61 248.983C997.66 249.342 997.753 249.66 997.889 249.939C998.031 250.217 998.226 250.437 998.473 250.597C998.721 250.758 999.042 250.839 999.438 250.839ZM1008.18 251.609L1010.84 242.702H1013.71L1009.67 254.253C1009.58 254.506 1009.47 254.778 1009.32 255.069C1009.18 255.36 1008.98 255.635 1008.73 255.895C1008.49 256.161 1008.19 256.377 1007.82 256.544C1007.45 256.711 1007 256.795 1006.47 256.795C1006.22 256.795 1006.01 256.779 1005.85 256.748C1005.69 256.717 1005.5 256.674 1005.27 256.618V254.661C1005.34 254.661 1005.41 254.661 1005.49 254.661C1005.56 254.667 1005.63 254.67 1005.7 254.67C1006.05 254.67 1006.34 254.63 1006.56 254.549C1006.79 254.469 1006.97 254.345 1007.1 254.178C1007.24 254.018 1007.35 253.807 1007.43 253.548L1008.18 251.609ZM1007.06 242.702L1009.24 249.976L1009.62 252.805L1007.81 253L1004.2 242.702H1007.06ZM1025.21 239.233V252.74H1022.44V239.233H1025.21ZM1029.37 239.233V241.413H1018.35V239.233H1029.37ZM1036.02 250.338V242.702H1038.69V252.74H1036.18L1036.02 250.338ZM1036.32 248.278L1037.1 248.259C1037.1 248.927 1037.03 249.549 1036.87 250.124C1036.72 250.693 1036.49 251.188 1036.18 251.609C1035.87 252.023 1035.48 252.348 1035.01 252.583C1034.54 252.812 1033.98 252.926 1033.35 252.926C1032.86 252.926 1032.41 252.858 1031.99 252.722C1031.58 252.58 1031.23 252.36 1030.93 252.063C1030.64 251.76 1030.42 251.374 1030.25 250.903C1030.09 250.427 1030.01 249.855 1030.01 249.187V242.702H1032.68V249.206C1032.68 249.503 1032.71 249.753 1032.78 249.957C1032.85 250.161 1032.96 250.328 1033.09 250.458C1033.22 250.588 1033.37 250.681 1033.54 250.736C1033.72 250.792 1033.92 250.82 1034.14 250.82C1034.69 250.82 1035.12 250.709 1035.43 250.486C1035.76 250.263 1035.98 249.96 1036.11 249.577C1036.25 249.187 1036.32 248.754 1036.32 248.278ZM1043.35 244.845V252.74H1040.68V242.702H1043.18L1043.35 244.845ZM1042.96 247.369H1042.23C1042.23 246.627 1042.33 245.959 1042.52 245.365C1042.71 244.765 1042.98 244.255 1043.33 243.834C1043.68 243.407 1044.09 243.083 1044.56 242.86C1045.05 242.631 1045.58 242.517 1046.18 242.517C1046.65 242.517 1047.08 242.585 1047.47 242.721C1047.86 242.857 1048.19 243.073 1048.47 243.37C1048.75 243.667 1048.97 244.06 1049.12 244.548C1049.27 245.037 1049.35 245.634 1049.35 246.339V252.74H1046.66V246.33C1046.66 245.884 1046.6 245.538 1046.47 245.291C1046.35 245.043 1046.17 244.87 1045.93 244.771C1045.69 244.666 1045.4 244.613 1045.05 244.613C1044.7 244.613 1044.38 244.685 1044.12 244.827C1043.86 244.969 1043.64 245.167 1043.47 245.421C1043.3 245.668 1043.17 245.959 1043.09 246.293C1043 246.627 1042.96 246.985 1042.96 247.369ZM1057.74 242.702H1060.16V252.406C1060.16 253.322 1059.95 254.098 1059.55 254.735C1059.14 255.378 1058.58 255.864 1057.86 256.192C1057.13 256.526 1056.29 256.693 1055.33 256.693C1054.91 256.693 1054.47 256.637 1054 256.526C1053.53 256.414 1053.09 256.241 1052.66 256.006C1052.24 255.771 1051.89 255.474 1051.6 255.115L1052.78 253.538C1053.09 253.897 1053.45 254.175 1053.86 254.373C1054.27 254.577 1054.72 254.679 1055.21 254.679C1055.7 254.679 1056.1 254.59 1056.44 254.41C1056.77 254.237 1057.03 253.98 1057.21 253.64C1057.39 253.306 1057.48 252.901 1057.48 252.425V245.022L1057.74 242.702ZM1050.98 247.842V247.647C1050.98 246.88 1051.08 246.184 1051.26 245.56C1051.45 244.929 1051.72 244.388 1052.07 243.936C1052.42 243.485 1052.85 243.135 1053.35 242.888C1053.85 242.64 1054.42 242.517 1055.05 242.517C1055.71 242.517 1056.27 242.64 1056.73 242.888C1057.18 243.135 1057.55 243.488 1057.84 243.945C1058.13 244.397 1058.36 244.932 1058.52 245.55C1058.68 246.163 1058.81 246.834 1058.91 247.564V247.99C1058.81 248.689 1058.67 249.339 1058.49 249.939C1058.3 250.539 1058.06 251.064 1057.76 251.516C1057.45 251.961 1057.08 252.307 1056.62 252.555C1056.18 252.802 1055.65 252.926 1055.03 252.926C1054.41 252.926 1053.85 252.799 1053.35 252.546C1052.85 252.292 1052.43 251.936 1052.08 251.479C1051.73 251.021 1051.45 250.483 1051.26 249.864C1051.08 249.246 1050.98 248.572 1050.98 247.842ZM1053.65 247.647V247.842C1053.65 248.256 1053.69 248.643 1053.78 249.002C1053.86 249.36 1053.98 249.679 1054.15 249.957C1054.32 250.229 1054.53 250.443 1054.79 250.597C1055.05 250.746 1055.35 250.82 1055.71 250.82C1056.19 250.82 1056.59 250.718 1056.9 250.514C1057.21 250.304 1057.44 250.016 1057.6 249.651C1057.75 249.286 1057.84 248.866 1057.87 248.389V247.174C1057.85 246.784 1057.8 246.435 1057.71 246.126C1057.62 245.81 1057.49 245.541 1057.32 245.319C1057.15 245.096 1056.94 244.923 1056.67 244.799C1056.4 244.675 1056.09 244.613 1055.72 244.613C1055.37 244.613 1055.06 244.694 1054.81 244.855C1054.55 245.009 1054.34 245.223 1054.17 245.495C1054 245.767 1053.87 246.089 1053.78 246.46C1053.7 246.825 1053.65 247.22 1053.65 247.647Z" fill="white"/>
</g>
<defs>
<radialGradient id="paint0_radial_118_1162" cx="0" cy="0" r="1" gradientUnits="userSpaceOnUse" gradientTransform="translate(1774.25 86.9695) rotate(90) scale(24.9695 19.0331)">
<stop stop-color="#EEA310"/>
<stop offset="0.0001" stop-color="#DB9100"/>
</radialGradient>
<linearGradient id="paint1_linear_118_1162" x1="960" y1="161" x2="960" y2="219.423" gradientUnits="userSpaceOnUse">
<stop stop-color="#B2B23E"/>
<stop offset="1" stop-color="#C7C75C" stop-opacity="0"/>
<stop offset="1" stop-color="#E3E354" stop-opacity="0"/>
</linearGradient>
<linearGradient id="paint2_linear_118_1162" x1="647.272" y1="56.0001" x2="647.272" y2="127.165" gradientUnits="userSpaceOnUse">
<stop stop-color="#B2B23E"/>
<stop offset="1" stop-color="#C7C75C" stop-opacity="0"/>
<stop offset="1" stop-color="#E3E354" stop-opacity="0"/>
</linearGradient>
<linearGradient id="paint3_linear_118_1162" x1="647.272" y1="56" x2="647.272" y2="127.165" gradientUnits="userSpaceOnUse">
<stop stop-color="#B2B23E"/>
<stop offset="1" stop-color="#C7C75C" stop-opacity="0"/>
<stop offset="1" stop-color="#E3E354" stop-opacity="0"/>
</linearGradient>
<clipPath id="clip0_118_1162">
<rect width="1920" height="276" fill="white"/>
</clipPath>
</defs>
</svg>
