<svg width="997" height="813" viewBox="0 0 997 813" fill="none" xmlns="http://www.w3.org/2000/svg">
<path opacity="0.2" d="M959.882 417.325C958.777 417.325 957.882 416.429 957.882 415.325V400.061C957.882 398.957 956.986 398.061 955.882 398.061H951.302C950.197 398.061 949.302 397.166 949.302 396.061V366.861C949.302 365.757 948.406 364.861 947.302 364.861H905.266C904.162 364.861 903.266 365.757 903.266 366.861V396.033C903.266 397.137 902.371 398.033 901.266 398.033H862.24C861.136 398.033 860.24 397.137 860.24 396.033V345.97C860.24 344.866 859.345 343.97 858.24 343.97H814.75C813.645 343.97 812.75 344.866 812.75 345.97V377.068C812.75 378.173 811.854 379.068 810.75 379.068H803.916C802.812 379.068 801.916 378.173 801.916 377.068V339.171C801.916 338.066 801.021 337.171 799.916 337.171H756.425C755.321 337.171 754.425 338.066 754.425 339.171V413.726C754.425 414.83 753.53 415.726 752.425 415.726H696.365C695.261 415.726 694.365 416.621 694.365 417.726V459.534C694.365 460.638 693.47 461.534 692.365 461.534H673.97C672.866 461.534 671.97 462.429 671.97 463.534V471.092C671.97 472.196 671.075 473.092 669.97 473.092H622.434C621.33 473.092 620.434 472.196 620.434 471.092V455.202C620.434 454.098 619.539 453.202 618.434 453.202H592.831C591.727 453.202 590.831 452.307 590.831 451.202V401.188C590.831 400.084 589.936 399.188 588.831 399.188H556.286C555.181 399.188 554.286 400.084 554.286 401.188V496.875C554.286 497.98 553.39 498.875 552.286 498.875H519.726C518.622 498.875 517.726 499.771 517.726 500.875V583.56C517.726 584.664 518.622 585.56 519.726 585.56H992.553C993.658 585.56 994.553 584.664 994.553 583.56V419.325C994.553 418.22 993.658 417.325 992.553 417.325H959.882Z" fill="#FFD883"/>
<path opacity="0.2" d="M35.1843 417.325C36.2889 417.325 37.1843 416.429 37.1843 415.325V400.061C37.1843 398.957 38.0797 398.061 39.1843 398.061H43.8843C44.9889 398.061 45.8843 397.166 45.8843 396.061V366.861C45.8843 365.757 46.7797 364.861 47.8843 364.861H90.5634C91.6679 364.861 92.5634 365.757 92.5634 366.861V396.033C92.5634 397.137 93.4588 398.033 94.5634 398.033H134.191C135.296 398.033 136.191 397.137 136.191 396.033V345.97C136.191 344.866 137.086 343.97 138.191 343.97H182.346C183.451 343.97 184.346 344.866 184.346 345.97V377.068C184.346 378.173 185.242 379.068 186.346 379.068H193.331C194.436 379.068 195.331 378.173 195.331 377.068V339.171C195.331 338.066 196.226 337.171 197.331 337.171H241.486C242.591 337.171 243.486 338.066 243.486 339.171V413.726C243.486 414.83 244.382 415.726 245.486 415.726H302.386C303.491 415.726 304.386 416.621 304.386 417.726V459.534C304.386 460.638 305.282 461.534 306.386 461.534H325.094C326.199 461.534 327.094 462.429 327.094 463.534V471.092C327.094 472.196 327.989 473.092 329.094 473.092H377.351C378.455 473.092 379.351 472.196 379.351 471.092V455.202C379.351 454.098 380.246 453.202 381.351 453.202H407.368C408.472 453.202 409.368 452.307 409.368 451.202V401.188C409.368 400.084 410.263 399.188 411.368 399.188H444.424C445.529 399.188 446.424 400.084 446.424 401.188V496.875C446.424 497.98 447.32 498.875 448.424 498.875H481.495C482.6 498.875 483.495 499.771 483.495 500.875V583.56C483.495 584.664 482.6 585.56 481.495 585.56H2.00001C0.895438 585.56 0 584.664 0 583.56V419.325C0 418.22 0.895431 417.325 2 417.325H35.1843Z" fill="#FFD883"/>
<path d="M750.737 239.132C745.122 217.507 781.331 205.878 806.936 209.197C796.626 159.323 839.73 176.73 863.242 176.731C886.754 176.732 893.289 143.009 934.28 155.334C975.272 167.658 936.463 209.217 964.625 214.608C992.787 220 1031.26 241.616 964.625 252.433C874.49 267.065 756.351 260.757 750.737 239.132Z" fill="white"/>
<path d="M57.4423 86.5072C51.8281 64.8823 88.0366 53.2536 113.641 56.5729C103.332 6.69844 146.435 24.1059 169.947 24.1068C193.459 24.1077 199.994 -9.61537 240.986 2.70908C281.978 15.0335 243.169 56.5921 271.331 61.9839C299.493 67.3758 337.967 88.9916 271.331 99.8087C181.196 114.44 63.0565 108.132 57.4423 86.5072Z" fill="white"/>
<rect y="655.803" width="1001.54" height="157.197" fill="#C7C75C"/>
<rect opacity="0.6" y="655.7" width="1001.54" height="157.197" fill="url(#paint0_linear_211_777)"/>
<rect y="569.599" width="1001.54" height="88.74" fill="#D2D52E"/>
<path d="M815.991 509.47C815.991 531.27 831.229 548.942 846.29 548.942C861.35 548.942 876.589 531.27 876.589 509.47C876.589 487.67 856.516 469.998 846.29 469.998C836.064 469.998 815.991 487.67 815.991 509.47Z" fill="#FFDB94"/>
<path fill-rule="evenodd" clip-rule="evenodd" d="M845.926 495.992C844.252 495.992 842.896 497.352 842.896 499.028V511.47L837.043 505.646C835.856 504.464 833.937 504.471 832.758 505.661C831.579 506.85 831.586 508.773 832.773 509.955L842.896 520.028V584.045C842.896 585.722 844.252 587.081 845.926 587.081C847.599 587.081 848.956 585.722 848.956 584.045V539.764L861.282 527.498C862.469 526.316 862.476 524.394 861.297 523.204C860.118 522.014 858.199 522.007 857.012 523.189L848.956 531.206V499.028C848.956 497.352 847.599 495.992 845.926 495.992Z" fill="#8D6808"/>
<rect opacity="0.3" width="66.9216" height="7.06286" rx="3.53143" transform="matrix(-1 0 0 1 954.309 579.799)" fill="#848484"/>
<rect opacity="0.3" width="66.9216" height="7.06286" rx="3.53143" transform="matrix(-1 0 0 1 876.589 579.799)" fill="#848484"/>
<path d="M876.822 476.027C876.822 506.437 898.079 531.089 919.088 531.089C940.097 531.089 961.354 506.437 961.354 476.027C961.354 445.617 933.353 420.964 919.088 420.964C904.823 420.964 876.822 445.617 876.822 476.027Z" fill="#B9BB26"/>
<path fill-rule="evenodd" clip-rule="evenodd" d="M918.582 457.226C916.248 457.226 914.355 459.122 914.355 461.461V478.817L906.191 470.692C904.534 469.044 901.858 469.053 900.213 470.713C898.569 472.373 898.578 475.054 900.234 476.703L914.355 490.755V580.057C914.355 582.396 916.248 584.293 918.582 584.293C920.916 584.293 922.809 582.396 922.809 580.057V518.287L940.004 501.175C941.66 499.527 941.669 496.845 940.025 495.185C938.38 493.525 935.704 493.516 934.047 495.164L922.809 506.348V461.461C922.809 459.122 920.916 457.226 918.582 457.226Z" fill="#8D6808"/>
<rect x="317.438" y="217.454" width="453.052" height="223.74" rx="4" fill="#E08F14"/>
<rect x="333.964" y="233.987" width="236.883" height="192.913" rx="2" fill="#FFFAF0"/>
<rect x="587.373" y="233.987" width="168.021" height="88.1888" rx="2" fill="#FFFAF0"/>
<rect x="587.326" y="337.04" width="167.716" height="88.7243" rx="2" fill="#FFFAF0"/>
<path d="M402.349 281.597V288.747C377.498 288.747 357.351 308.913 357.351 333.789C357.351 358.666 377.498 378.832 402.349 378.832C426.953 378.832 446.944 359.067 447.342 334.534L447.348 333.789H454.49C454.49 362.614 431.146 385.981 402.349 385.981C373.553 385.981 350.209 362.614 350.209 333.789C350.209 305.253 373.088 282.065 401.487 281.604L402.349 281.597Z" fill="#FF9900"/>
<path d="M406.695 277.248C435.996 277.248 459.804 299.514 460.277 327.151L460.284 327.99H449.002C449.002 306.087 430.438 288.289 407.395 287.935C407.008 287.933 406.695 287.618 406.695 287.23V277.248Z" fill="#FFC759"/>
<rect x="471.687" y="289.107" width="82.6335" height="8.26634" rx="4.13317" fill="#FF9900"/>
<rect x="471.687" y="313.91" width="82.6335" height="8.26634" rx="4.13317" fill="#FFC759"/>
<rect x="471.687" y="338.714" width="82.6335" height="8.26634" rx="4.13317" fill="#FF9900"/>
<rect x="471.687" y="363.516" width="82.6335" height="8.26634" rx="4.13317" fill="#FF9900"/>
<ellipse cx="637.448" cy="284.961" rx="28.9166" ry="28.9318" fill="#FF9900"/>
<path d="M657.895 264.503C652.472 259.077 645.117 256.029 637.448 256.029V284.961L657.895 264.503Z" fill="#FFC759"/>
<path d="M610.459 354.397H728.669C730.458 354.397 731.909 355.847 731.909 357.636C731.909 359.426 730.458 360.876 728.669 360.876H610.459V354.397Z" fill="#FF9900"/>
<path d="M610.459 378.162H696.385C698.174 378.162 699.625 379.613 699.625 381.402C699.625 383.191 698.174 384.642 696.385 384.642H610.459V378.162Z" fill="#FF9900"/>
<path d="M610.459 401.923H678.705C680.495 401.923 681.945 403.374 681.945 405.163C681.945 406.952 680.495 408.403 678.705 408.403H610.459V401.923Z" fill="#FFC759"/>
<path fill-rule="evenodd" clip-rule="evenodd" d="M707.591 260.211L727.872 296.523L724.38 298.474L708.034 269.208L691.585 306.963L677.121 279.133L680.67 277.288L691.267 297.678L707.591 260.211Z" fill="#FF9900"/>
<path d="M182.532 509.47C182.532 531.27 167.293 548.942 152.233 548.942C137.172 548.942 121.934 531.27 121.934 509.47C121.934 487.67 142.007 469.998 152.233 469.998C162.459 469.998 182.532 487.67 182.532 509.47Z" fill="#FFDB94"/>
<path fill-rule="evenodd" clip-rule="evenodd" d="M152.597 495.992C154.27 495.992 155.627 497.352 155.627 499.028V511.47L161.479 505.646C162.667 504.464 164.585 504.471 165.764 505.661C166.943 506.85 166.937 508.773 165.749 509.955L155.627 520.028V584.045C155.627 585.722 154.27 587.081 152.597 587.081C150.923 587.081 149.567 585.722 149.567 584.045V539.764L137.24 527.498C136.053 526.316 136.046 524.394 137.225 523.204C138.404 522.014 140.323 522.007 141.51 523.189L149.567 531.206V499.028C149.567 497.352 150.923 495.992 152.597 495.992Z" fill="#8D6808"/>
<rect opacity="0.3" x="44.2137" y="579.799" width="66.9216" height="7.06286" rx="3.53143" fill="#848484"/>
<rect opacity="0.3" x="121.934" y="579.799" width="66.9216" height="7.06286" rx="3.53143" fill="#848484"/>
<path d="M121.701 476.027C121.701 506.437 100.443 531.089 79.4346 531.089C58.4259 531.089 37.1683 506.437 37.1683 476.027C37.1683 445.617 65.1698 420.964 79.4346 420.964C93.6995 420.964 121.701 445.617 121.701 476.027Z" fill="#B9BB26"/>
<path fill-rule="evenodd" clip-rule="evenodd" d="M79.9405 457.226C82.2748 457.226 84.1671 459.122 84.1671 461.461V478.817L92.3318 470.692C93.9881 469.044 96.6643 469.053 98.3091 470.713C99.954 472.373 99.9446 475.054 98.2883 476.703L84.1671 490.755V580.057C84.1671 582.396 82.2748 584.293 79.9405 584.293C77.6062 584.293 75.7139 582.396 75.7139 580.057V518.287L58.5188 501.175C56.8624 499.527 56.8531 496.845 58.4979 495.185C60.1428 493.525 62.8189 493.516 64.4753 495.164L75.7139 506.348V461.461C75.7139 459.122 77.6062 457.226 79.9405 457.226Z" fill="#8D6808"/>
<path fill-rule="evenodd" clip-rule="evenodd" d="M302.395 499.149C302.395 485.64 300.42 460.616 300.42 460.616C300.42 460.616 279.491 471.088 267.828 471.088C256.164 471.088 247.182 460.616 247.182 460.616C245.489 465.033 244.768 469.742 245.065 474.442V499.149C245.065 509.229 248.096 530.082 250.686 547.894C251.788 555.475 252.809 562.505 253.483 567.919C254.724 581.689 254.724 595.537 253.483 609.308C253.483 609.308 253.576 609.355 253.745 609.434C251.452 611.774 253.002 615.38 254.178 616.674C255.699 618.348 257.673 619.58 259.879 620.232C267.122 621.682 279.491 615.699 280.525 611.165C281.243 608.023 276.016 608.235 271.473 608.419C270.144 608.473 268.874 608.525 267.828 608.489V589.316C267.828 576.623 270.932 499.149 270.932 499.149C270.932 499.149 272.39 502.911 275.118 509.303C276.816 513.283 278.277 522.991 279.763 532.859C280.663 538.841 281.572 544.881 282.548 549.74C285.135 562.615 282.548 624.041 282.548 624.041C282.548 624.041 282.628 624.27 282.794 624.633C283.228 626.625 284.187 628.479 285.582 630.015C287.104 631.69 289.083 632.919 291.295 633.562C298.491 635.058 310.907 629.029 311.941 624.495C312.655 621.37 307.49 621.563 302.965 621.732C300.925 621.808 299.016 621.879 297.832 621.64C297.063 621.657 296.295 621.69 295.529 621.739V609.308C295.529 606.042 296.791 587.802 298.234 566.967C300.155 539.218 302.395 506.865 302.395 499.149Z" fill="#F5C43C"/>
<path fill-rule="evenodd" clip-rule="evenodd" d="M299.363 330.052C299.346 329.82 299.337 329.697 299.337 329.697L300.701 329.606L299.363 330.052ZM286.78 363.412C290.309 365.493 294.499 367.044 296.938 364.739C301.43 360.494 299.613 333.473 299.363 330.052L270.554 339.67L278.559 355.029L272.811 357.168C271.629 361.84 270.874 366.604 270.554 371.403C270.554 376.616 277.138 381.965 281.418 384.051C281.887 384.372 282.433 384.574 283.005 384.639C283.577 384.704 284.157 384.629 284.69 384.421C285.224 384.213 285.696 383.88 286.061 383.451C286.426 383.021 286.673 382.511 286.78 381.965V363.832V363.412Z" fill="white"/>
<path fill-rule="evenodd" clip-rule="evenodd" d="M269.474 362.608C269.474 362.608 279.633 362.88 281.608 358.346C283.584 353.813 282.455 340.213 287.158 340.213C291.861 340.213 299.621 340.213 299.621 334.365C299.621 328.517 299.621 318 284.571 318C269.521 318 265.759 322.08 261.056 328.2C256.353 334.32 251.65 354.13 256.353 358.437C260.125 361.194 264.741 362.661 269.474 362.608Z" fill="#4B4B4B"/>
<path fill-rule="evenodd" clip-rule="evenodd" d="M267.357 338.445C265.748 337.212 263.823 336.422 261.786 336.158C259.749 335.895 257.676 336.168 255.788 336.949C252.542 338.173 250.191 344.882 249.203 348.69C247.853 355.976 247.853 363.436 249.203 370.722C250.802 381.738 251.414 395.7 249.203 395.7C251.254 395.648 253.273 395.19 255.133 394.356C256.994 393.522 258.657 392.328 260.02 390.85C265.146 385.183 269.426 353.586 269.426 348.69C269.426 343.794 269.614 341.21 267.357 338.445Z" fill="#4B4B4B"/>
<path fill-rule="evenodd" clip-rule="evenodd" d="M296.045 413.563C296.045 413.563 304.886 435.821 311.894 435.821C318.901 435.821 327.037 425.757 331.082 419.683C336.02 410.341 340.385 400.73 344.156 390.896C346.13 388.172 347.831 385.273 349.236 382.238C349.93 380.061 350.121 377.764 349.796 375.509C349.471 373.253 348.638 371.094 347.354 369.182C344.862 367.323 340.394 366.734 337.102 372.446C336.022 374.521 335.46 376.811 335.46 379.132C335.46 381.454 336.022 383.744 337.102 385.819C337.102 385.819 326.238 402.728 322.993 408.485C319.748 414.243 315.938 416.736 313.869 416.736C311.8 416.736 308.225 411.613 308.225 407.216C307.989 404.018 306.992 400.915 305.309 398.149L296.045 413.563Z" fill="white"/>
<path fill-rule="evenodd" clip-rule="evenodd" d="M286.781 374.079C285.43 374.992 283.879 375.594 282.248 375.837C280.617 376.081 278.95 375.96 277.375 375.484C274.311 374.02 271.565 372.004 269.286 369.546C264.206 372.555 259.941 376.685 256.842 381.595C253.742 386.506 251.898 392.056 251.462 397.788C249.674 417.734 247.981 463.112 245.395 463.112C242.808 463.112 254.331 474.763 269.333 474.763C280.532 474.122 291.529 471.607 301.831 467.328L299.527 415.558C299.527 415.558 299.151 387.86 296.094 383.463C293.393 379.985 290.266 376.834 286.781 374.079Z" fill="#C78400"/>
<path fill-rule="evenodd" clip-rule="evenodd" d="M289.942 410.874C290.163 411.396 290.495 411.867 290.916 412.257C291.337 412.648 291.839 412.948 292.388 413.141C292.938 413.333 293.523 413.412 294.106 413.373C294.689 413.334 295.257 413.178 295.774 412.914C297.431 411.929 299.265 411.253 301.182 410.92H303.863C304.408 410.922 304.949 410.814 305.449 410.603C305.949 410.392 306.397 410.082 306.765 409.693C307.133 409.304 307.412 408.845 307.585 408.346C307.757 407.847 307.819 407.318 307.766 406.794C307.263 400.822 306.368 394.887 305.085 389.024C303.675 384.944 297.137 374.517 291.682 376.603C286.226 378.688 285.098 386.077 285.098 390.701C285.65 396.001 286.657 401.247 288.108 406.386L289.942 410.874Z" fill="#C78400"/>
<path d="M220.967 253.377C228.635 253.377 234.852 259.596 234.852 267.267V285.812C234.852 287.253 234.633 288.643 234.225 289.95H234.852V310.674L226.009 298.758C224.446 299.368 222.745 299.702 220.967 299.702H175.618C167.949 299.702 161.733 293.483 161.733 285.812V267.267C161.733 259.596 167.949 253.377 175.618 253.377H220.967Z" fill="#FFC759"/>
<path d="M227.996 270.673H170.172C169.297 270.673 168.587 271.382 168.587 272.257C168.587 273.133 169.297 273.842 170.172 273.842H227.996V270.673Z" fill="white"/>
<path d="M227.996 282.295H185.964C185.089 282.295 184.379 283.005 184.379 283.88C184.379 284.755 185.089 285.465 185.964 285.465H227.996V282.295Z" fill="white"/>
<path d="M856.703 255.372C849.034 255.372 842.817 261.591 842.817 269.262V287.807C842.817 289.248 843.037 290.638 843.444 291.945H842.817V312.669L851.66 300.753C853.223 301.363 854.924 301.697 856.703 301.697H902.051C909.72 301.697 915.937 295.479 915.937 287.807V269.262C915.937 261.591 909.72 255.372 902.051 255.372H856.703Z" fill="#FFC759"/>
<path d="M849.673 272.668H907.498C908.373 272.668 909.082 273.377 909.082 274.252C909.082 275.128 908.373 275.837 907.498 275.837H849.673V272.668Z" fill="white"/>
<path d="M849.673 284.29H891.705C892.58 284.29 893.29 285 893.29 285.875C893.29 286.75 892.58 287.46 891.705 287.46H849.673V284.29Z" fill="white"/>
<path d="M788.685 454.861C788.125 445.673 783.349 439.047 780.972 436.819C777.671 436.961 770.093 436.763 763.949 436.763H745.574V441.106C744.867 446.657 743.454 459.495 743.454 466.444C743.454 475.132 741.333 506.985 741.333 514.225C741.333 520.017 742.747 556.214 743.454 573.589L732.853 580.104H751.228C752.641 571.899 755.892 553.173 757.589 543.907C759.709 532.324 757.589 508.433 757.589 502.642C757.589 496.85 758.295 496.85 760.416 490.335C762.112 485.122 765.834 475.132 767.483 470.788C769.839 481.406 774.975 504.958 776.671 514.225C778.791 525.808 795.046 556.214 798.58 564.901C801.407 571.851 801.642 575.519 801.407 576.484L792.926 581.552L801.407 583L806.354 576.484V569.245C806.354 565.625 802.82 544.631 801.407 534.496C800.276 526.387 793.397 513.742 790.099 508.433C789.628 506.744 788.685 502.642 788.685 499.746C788.685 496.126 789.392 466.444 788.685 454.861Z" fill="#C78400"/>
<path d="M748.694 323.126C750.899 320.164 751.45 320.658 751.45 321.275L761.557 324.052L758.801 331.456L745.019 336.084C745.325 332.999 746.489 326.088 748.694 323.126Z" fill="black"/>
<path d="M759.79 371.278L771.672 372.887C776.833 373.586 781.389 376.634 784.029 381.156C784.745 382.382 785.335 383.513 785.846 384.601C789.578 392.553 790.345 401.502 790.345 410.287C790.345 417.956 790.409 426.357 787.965 431.238C785.769 435.624 782.132 438.418 773.919 443.382C769.627 445.977 763.913 445.182 759.79 445.879C756.491 446.437 754.75 446.111 754.292 445.879C754.75 444.717 754.704 441.556 753.605 440.999C752.001 441.463 748.382 442.532 746.733 443.09C745.789 443.409 745.4 443.591 745.283 443.689C745.309 443.723 745.334 443.756 745.358 443.787C745.26 443.787 745.196 443.762 745.283 443.689C743.633 441.501 739.727 435.195 739.173 426.357L738.502 415.644C738.502 410.09 738.236 401.262 736.424 397.075C735.297 394.468 734.363 393.124 733.676 392.891C730.239 394.518 722.543 397.911 719.244 398.469C715.121 399.166 704.928 400.358 702.751 399.863C701.25 399.522 700.055 397.883 700.002 395.68C699.914 392.047 702.751 387.314 706.874 382.433C710.173 378.529 714.663 373.37 716.495 371.278C717.641 369.884 720.344 366.676 721.993 365.003C724.055 362.911 728.178 357.334 728.865 357.334C729.415 357.334 732.301 359.658 733.676 360.82L734.363 361.517C732.53 365.468 728.315 374.067 726.116 376.856C723.917 379.644 721.727 383.801 721.268 385.428C723.788 382.871 730.377 377.134 733.676 375.461C736.974 373.788 741.464 372.44 743.297 371.975L746.045 371.278C745.816 373.37 746.045 377.553 748.794 377.553C751.543 377.553 757.27 373.37 759.79 371.278Z" fill="#F5C43C"/>
<rect x="749.612" y="349.967" width="14.7003" height="29.6177" fill="white"/>
<path fill-rule="evenodd" clip-rule="evenodd" d="M758.383 324.968L754.344 325.802C748.082 327.096 742.741 331.182 739.823 336.911L738.958 338.609C738.101 340.29 737.421 342.062 737.157 343.933C736.946 345.423 736.751 347.416 736.75 349.682C736.75 352.219 737.511 354.667 738.247 356.441C739.007 358.275 740.596 359.565 742.435 360.287C743.753 360.805 745.172 361.008 746.582 360.883L748.841 360.681C752.89 360.32 756.715 358.651 759.747 355.923L763.102 352.904C763.278 352.961 763.451 353.014 763.617 353.066C763.903 353.155 764.172 353.238 764.406 353.32C766.363 353.997 768.501 353.683 770.217 352.465L771.735 351.387C772.597 350.775 773.201 349.823 773.416 348.736C773.814 346.719 772.802 344.687 771.02 343.927L769.441 343.253L770.725 340.26C772.859 335.286 771.119 329.486 766.608 326.534C764.177 324.944 761.223 324.381 758.383 324.968Z" fill="white"/>
<path d="M759.719 375.883C763.394 373.107 764.007 370.33 764.313 368.479C766.518 368.479 768.294 370.947 768.907 372.181C769.213 373.107 768.907 376.068 765.232 380.511C761.557 384.954 758.8 386.064 757.882 386.064C758.188 385.447 758.249 383.658 756.044 381.437C753.839 379.215 751.756 378.66 751.45 378.66C752.675 378.351 757.089 377.87 759.719 375.883Z" fill="#FFEBB2"/>
<path d="M750.531 374.032C751.266 376.253 752.369 378.351 753.287 378.66C750.531 380.511 745.018 384.028 745.018 383.288C745.018 382.362 744.1 378.66 744.1 375.883C744.1 373.662 744.712 371.873 745.018 371.255L749.612 368.479C749.612 369.404 749.796 371.811 750.531 374.032Z" fill="#FFEBB2"/>
<path d="M771.844 355.62C768.798 356.529 764.001 355.53 761.982 354.917C761.233 353.925 760.619 352.082 764.156 352.647C768.577 353.354 769.51 349.327 769.523 347.399C769.533 345.817 769.179 343.856 767.411 343.573C765.642 343.29 764.488 344.85 762.584 345.418C760.681 345.986 760.951 344.285 762.989 342.866C765.028 341.448 765.225 334.501 764.881 330.957C764.537 327.414 759.981 327.558 757.463 326.283C754.945 325.009 749.64 324.161 748.142 322.177L748.141 322.177C746.643 320.193 745.145 318.209 746.705 314.098C748.264 309.986 751.623 311.844 752.415 312.393C754.049 313.526 756.044 315.715 758.8 316.639C761.556 317.562 765.233 315.709 773.097 319.187C780.636 322.522 779.444 329.084 779.444 329.084C779.444 329.084 783.2 332.46 782.109 340.848C781.442 345.973 775.651 354.484 771.844 355.62Z" fill="black"/>
<path d="M747.492 441.937C751.078 438.895 754.464 438.641 755.709 438.895C756.456 441.43 757.651 446.804 756.456 448.021C754.962 449.542 747.492 452.584 745.251 453.344C743.01 454.105 742.263 453.344 742.263 451.063C742.263 448.781 743.01 445.739 747.492 441.937Z" fill="white"/>
<path d="M737.756 359.352C735.506 362.601 732.817 363.547 731.754 363.614C730.602 361.723 728.476 357.63 729.182 356.383C730.065 354.824 735.461 350.726 737.113 349.619C738.765 348.513 739.534 348.966 740.026 350.814C740.517 352.663 740.568 355.291 737.756 359.352Z" fill="white"/>
<defs>
<linearGradient id="paint0_linear_211_777" x1="500.768" y1="655.7" x2="500.768" y2="812.897" gradientUnits="userSpaceOnUse">
<stop stop-color="#B2B23E"/>
<stop offset="1" stop-color="#C7C75C" stop-opacity="0"/>
<stop offset="1" stop-color="#E3E354" stop-opacity="0"/>
</linearGradient>
</defs>
</svg>
